<svg xmlns="http://www.w3.org/2000/svg" version="1.0" width="300.000000pt" height="120.000000pt" viewBox="-3 -3 306 126" preserveAspectRatio="xMidYMid meet" transform="matrix(1, 0, 0, 1, 0, 0)"><g id="deeditor_bgCarrier" stroke-width="0">
  <rect id="dee_c_e" x="-3" y="-3" width="306" height="126" rx="38.4" fill="#f1f4f4" strokewidth="0"/>
</g>
<metadata fill="#000000">
Created by potrace 1.10, written by Peter Selinger 2001-2011
</metadata>
<g transform="translate(0.000000,120.000000) scale(0.100000,-0.100000)" fill="#000000" stroke="none">
<path d="M1176 996 c-79 -29 -124 -79 -133 -144 -14 -104 36 -174 153 -212 126 -41 154 -63 154 -117 0 -27 -8 -43 -34 -69 -30 -30 -40 -34 -86 -34 -54 0 -81 10 -117 43 l-22 20 -37 -28 -37 -28 36 -33 c41 -38 90 -54 168 -54 138 0 219 73 219 197 0 94 -35 129 -184 179 -85 29 -126 65 -126 110 0 93 148 136 220 64 19 -19 20 -19 54 12 29 25 33 34 24 45 -41 49 -179 76 -252 49z m-17 -281 c39 -28 35 -33 -9 -10 -29 15 -60 51 -60 70 0 5 8 0 18 -12 9 -12 32 -34 51 -48z m219 -108 c6 -12 13 -33 17 -47 5 -23 5 -23 -6 -5 -6 11 -28 37 -48 58 l-36 38 31 -11 c17 -6 36 -21 42 -33z" fill="#000000"/>
<path d="M592 908 l-133 -42 2 -70 2 -70 -124 -58 -124 -57 0 -180 0 -180 343 -6 342 -6 0 310 0 310 -84 45 c-45 26 -85 46 -87 45 -2 0 -64 -19 -137 -41z m221 -24 l67 -35 0 -295 0 -294 -70 0 -70 0 0 314 c0 173 -3 321 -6 330 -9 23 4 20 79 -20z m-115 -57 c3 -69 -5 -74 -81 -59 -46 10 -55 9 -80 -9 -32 -23 -41 -13 -35 43 3 31 7 34 78 60 107 39 114 36 118 -35z m-35 -107 l57 -11 0 -225 0 -224 -85 0 -85 0 0 244 0 245 28 -9 c15 -5 53 -14 85 -20z m-157 -417 c-4 -10 -37 -13 -126 -13 l-120 0 -1 28 c-7 140 -3 247 11 264 8 9 53 36 100 59 47 23 96 50 110 61 l25 20 3 -203 c1 -112 0 -209 -2 -216z" fill="#000000"/>
<path d="M770 760 c0 -20 5 -30 15 -30 10 0 15 10 15 30 0 20 -5 30 -15 30 -10 0 -15 -10 -15 -30z" fill="#000000"/>
<path d="M820 760 c0 -20 5 -30 15 -30 10 0 15 10 15 30 0 20 -5 30 -15 30 -10 0 -15 -10 -15 -30z" fill="#000000"/>
<path d="M770 664 c0 -45 24 -42 28 4 2 24 -1 32 -12 32 -12 0 -16 -10 -16 -36z" fill="#000000"/>
<path d="M820 671 c0 -16 6 -31 15 -35 12 -4 15 3 15 29 0 24 -5 35 -15 35 -10 0 -15 -10 -15 -29z" fill="#000000"/>
<path d="M770 575 c0 -24 5 -35 15 -35 10 0 15 11 15 35 0 24 -5 35 -15 35 -10 0 -15 -11 -15 -35z" fill="#000000"/>
<path d="M820 575 c0 -24 5 -35 15 -35 10 0 15 11 15 35 0 24 -5 35 -15 35 -10 0 -15 -11 -15 -35z" fill="#000000"/>
<path d="M770 480 c0 -20 5 -30 15 -30 10 0 15 10 15 30 0 20 -5 30 -15 30 -10 0 -15 -10 -15 -30z" fill="#000000"/>
<path d="M820 480 c0 -20 5 -30 15 -30 10 0 15 10 15 30 0 20 -5 30 -15 30 -10 0 -15 -10 -15 -30z" fill="#000000"/>
<path d="M770 385 c0 -24 5 -35 15 -35 10 0 15 11 15 35 0 24 -5 35 -15 35 -10 0 -15 -11 -15 -35z" fill="#000000"/>
<path d="M820 385 c0 -24 5 -35 15 -35 10 0 15 11 15 35 0 24 -5 35 -15 35 -10 0 -15 -11 -15 -35z" fill="#000000"/>
<path d="M570 650 c0 -20 5 -30 15 -30 10 0 15 10 15 30 0 20 -5 30 -15 30 -10 0 -15 -10 -15 -30z" fill="#000000"/>
<path d="M620 650 c0 -20 5 -30 15 -30 10 0 15 10 15 30 0 20 -5 30 -15 30 -10 0 -15 -10 -15 -30z" fill="#000000"/>
<path d="M670 650 c0 -20 5 -30 15 -30 10 0 15 10 15 30 0 20 -5 30 -15 30 -10 0 -15 -10 -15 -30z" fill="#000000"/>
<path d="M570 570 c0 -20 5 -30 15 -30 10 0 15 10 15 30 0 20 -5 30 -15 30 -10 0 -15 -10 -15 -30z" fill="#000000"/>
<path d="M620 570 c0 -20 5 -30 15 -30 10 0 15 10 15 30 0 20 -5 30 -15 30 -10 0 -15 -10 -15 -30z" fill="#000000"/>
<path d="M670 570 c0 -20 5 -30 15 -30 10 0 15 10 15 30 0 20 -5 30 -15 30 -10 0 -15 -10 -15 -30z" fill="#000000"/>
<path d="M570 480 c0 -20 5 -30 15 -30 10 0 15 10 15 30 0 20 -5 30 -15 30 -10 0 -15 -10 -15 -30z" fill="#000000"/>
<path d="M620 480 c0 -20 5 -30 15 -30 10 0 15 10 15 30 0 20 -5 30 -15 30 -10 0 -15 -10 -15 -30z" fill="#000000"/>
<path d="M670 480 c0 -20 5 -30 15 -30 10 0 15 10 15 30 0 20 -5 30 -15 30 -10 0 -15 -10 -15 -30z" fill="#000000"/>
<path d="M570 385 c0 -24 5 -35 15 -35 10 0 15 11 15 35 0 24 -5 35 -15 35 -10 0 -15 -11 -15 -35z" fill="#000000"/>
<path d="M620 385 c0 -24 5 -35 15 -35 10 0 15 11 15 35 0 24 -5 35 -15 35 -10 0 -15 -11 -15 -35z" fill="#000000"/>
<path d="M670 385 c0 -24 5 -35 15 -35 10 0 15 11 15 35 0 24 -5 35 -15 35 -10 0 -15 -11 -15 -35z" fill="#000000"/>
<path d="M1582 840 l3 -60 -47 0 -48 0 0 -35 0 -35 48 0 47 0 0 -148 c0 -123 3 -152 17 -174 22 -34 77 -52 133 -44 41 7 43 9 47 45 l3 38 -45 -5 c-68 -6 -74 6 -79 160 l-3 128 61 0 61 0 0 35 0 35 -61 0 -61 0 4 60 4 60 -44 0 -44 0 4 -60z m72 -82 c8 -14 7 -21 -6 -34 -30 -30 -75 9 -48 42 16 18 39 15 54 -8z" fill="#000000"/>
<path d="M1978 781 c-32 -11 -88 -43 -88 -51 0 -4 11 -17 24 -29 l25 -23 26 20 c75 59 195 22 195 -60 0 -22 -4 -23 -73 -24 -84 -1 -136 -16 -177 -51 -58 -48 -58 -138 0 -187 60 -50 176 -43 224 14 32 38 38 38 34 -2 -3 -31 -1 -33 33 -36 l35 -3 -4 173 c-4 186 -7 199 -64 241 -29 22 -144 33 -190 18z m182 -246 c0 -38 -25 -90 -51 -109 -14 -10 -44 -16 -75 -16 -58 0 -86 22 -86 65 0 53 55 82 160 84 49 1 52 0 52 -24z" fill="#000000"/>
<path d="M2304 772 c2 -4 43 -101 90 -215 l85 -207 -15 -44 c-9 -25 -27 -57 -40 -72 -21 -22 -31 -26 -64 -21 -36 5 -38 3 -44 -25 -3 -17 -6 -34 -6 -39 0 -5 29 -9 64 -9 70 0 104 18 131 71 9 16 61 144 116 286 56 142 103 264 106 271 4 8 -8 12 -40 12 l-45 0 -60 -172 c-33 -95 -63 -166 -65 -158 -3 8 -32 86 -64 173 l-58 157 -48 0 c-26 0 -46 -3 -43 -8z m236 -362 c0 -22 -16 -43 -28 -36 -5 3 -12 16 -14 30 -4 20 -1 23 19 22 13 0 23 -7 23 -16z" fill="#000000"/>
</g>
</svg>